<svg width="1200" height="1200" viewBox="0 0 1200 1200" fill="none" xmlns="http://www.w3.org/2000/svg">
  <g opacity="0.42" stroke="#8BA08D" stroke-width="10" stroke-linecap="round" stroke-linejoin="round">
    <path d="M600 300C680 300 750 360 750 440C750 505 700 560 640 575C700 590 750 645 750 710C750 790 680 850 600 850"/>
    <path d="M600 300C520 300 450 360 450 440C450 505 500 560 560 575C500 590 450 645 450 710C450 790 520 850 600 850"/>
    <path d="M600 400C640 400 675 435 675 475C675 515 640 550 600 550C560 550 525 515 525 475C525 435 560 400 600 400Z"/>
    <path d="M600 600C655 600 700 645 700 700C700 755 655 800 600 800C545 800 500 755 500 700C500 645 545 600 600 600Z"/>
    <path d="M330 600H450"/>
    <path d="M750 600H870"/>
    <path d="M600 180V300"/>
    <path d="M600 850V970"/>
  </g>

  <g opacity="0.3" stroke="#B7C6B9" stroke-width="6" stroke-linecap="round">
    <path d="M300 300C360 300 410 350 410 410C410 470 360 520 300 520"/>
    <path d="M900 300C840 300 790 350 790 410C790 470 840 520 900 520"/>
    <path d="M300 900C360 900 410 850 410 790C410 730 360 680 300 680"/>
    <path d="M900 900C840 900 790 850 790 790C790 730 840 680 900 680"/>
  </g>
</svg>
